<svg width="512" height="512" xmlns="http://www.w3.org/2000/svg">
  
  <!-- Cores -->  
  <style>
    :root {
      --cor_1: black;
      --cor_2: white;
      --cor_3: blue;
      --cor_4: green;
      --cor_5: gold;
      --cor_6: silver;
    
    }
  </style>

  <!-- Tabuleiro -->
  <rect x="0" y="0" width="64" height="64" fill="var(--cor_2)" />
  <rect x="0" y="64" width="64" height="64" fill="var(--cor_1)" />
  <rect x="0" y="128" width="64" height="64" fill="var(--cor_2)" />
  <rect x="0" y="192" width="64" height="64" fill="var(--cor_1)" />
  <rect x="0" y="256" width="64" height="64" fill="var(--cor_2)" />
  <rect x="0" y="320" width="64" height="64" fill="var(--cor_1)" />
  <rect x="0" y="384" width="64" height="64" fill="var(--cor_2)" />
  <rect x="0" y="448" width="64" height="64" fill="var(--cor_1)" />
  <rect x="64" y="0" width="64" height="64" fill="var(--cor_1)" />
  <rect x="64" y="64" width="64" height="64" fill="var(--cor_2)" />
  <rect x="64" y="128" width="64" height="64" fill="var(--cor_1)" />
  <rect x="64" y="192" width="64" height="64" fill="var(--cor_2)" />
  <rect x="64" y="256" width="64" height="64" fill="var(--cor_1)" />
  <rect x="64" y="320" width="64" height="64" fill="var(--cor_2)" />
  <rect x="64" y="384" width="64" height="64" fill="var(--cor_1)" />
  <rect x="64" y="448" width="64" height="64" fill="var(--cor_2)" />
  <rect x="128" y="0" width="64" height="64" fill="var(--cor_2)" />
  <rect x="128" y="64" width="64" height="64" fill="var(--cor_1)" />
  <rect x="128" y="128" width="64" height="64" fill="var(--cor_2)" />
  <rect x="128" y="192" width="64" height="64" fill="var(--cor_1)" />
  <rect x="128" y="256" width="64" height="64" fill="var(--cor_2)" />
  <rect x="128" y="320" width="64" height="64" fill="var(--cor_1)" />
  <rect x="128" y="384" width="64" height="64" fill="var(--cor_2)" />
  <rect x="128" y="448" width="64" height="64" fill="var(--cor_1)" />
  <rect x="192" y="0" width="64" height="64" fill="var(--cor_1)" />
  <rect x="192" y="64" width="64" height="64" fill="var(--cor_2)" />
  <rect x="192" y="128" width="64" height="64" fill="var(--cor_1)" />
  <rect x="192" y="192" width="64" height="64" fill="var(--cor_2)" />
  <rect x="192" y="256" width="64" height="64" fill="var(--cor_1)" />
  <rect x="192" y="320" width="64" height="64" fill="var(--cor_2)" />
  <rect x="192" y="384" width="64" height="64" fill="var(--cor_1)" />
  <rect x="192" y="448" width="64" height="64" fill="var(--cor_2)" />
  <rect x="256" y="0" width="64" height="64" fill="var(--cor_2)" />
  <rect x="256" y="64" width="64" height="64" fill="var(--cor_1)" />
  <rect x="256" y="128" width="64" height="64" fill="var(--cor_2)" />
  <rect x="256" y="192" width="64" height="64" fill="var(--cor_1)" />
  <rect x="256" y="256" width="64" height="64" fill="var(--cor_2)" />
  <rect x="256" y="320" width="64" height="64" fill="var(--cor_1)" />
  <rect x="256" y="384" width="64" height="64" fill="var(--cor_2)" />
  <rect x="256" y="448" width="64" height="64" fill="var(--cor_1)" />
  <rect x="320" y="0" width="64" height="64" fill="var(--cor_1)" />
  <rect x="320" y="64" width="64" height="64" fill="var(--cor_2)" />
  <rect x="320" y="128" width="64" height="64" fill="var(--cor_1)" />
  <rect x="320" y="192" width="64" height="64" fill="var(--cor_2)" />
  <rect x="320" y="256" width="64" height="64" fill="var(--cor_1)" />
  <rect x="320" y="320" width="64" height="64" fill="var(--cor_2)" />
  <rect x="320" y="384" width="64" height="64" fill="var(--cor_1)" />
  <rect x="320" y="448" width="64" height="64" fill="var(--cor_2)" />
  <rect x="384" y="0" width="64" height="64" fill="var(--cor_2)" />
  <rect x="384" y="64" width="64" height="64" fill="var(--cor_1)" />
  <rect x="384" y="128" width="64" height="64" fill="var(--cor_2)" />
  <rect x="384" y="192" width="64" height="64" fill="var(--cor_1)" />
  <rect x="384" y="256" width="64" height="64" fill="var(--cor_2)" />
  <rect x="384" y="320" width="64" height="64" fill="var(--cor_1)" />
  <rect x="384" y="384" width="64" height="64" fill="var(--cor_2)" />
  <rect x="384" y="448" width="64" height="64" fill="var(--cor_1)" />
  <rect x="448" y="0" width="64" height="64" fill="var(--cor_1)" />
  <rect x="448" y="64" width="64" height="64" fill="var(--cor_2)" />
  <rect x="448" y="128" width="64" height="64" fill="var(--cor_1)" />
  <rect x="448" y="192" width="64" height="64" fill="var(--cor_2)" />
  <rect x="448" y="256" width="64" height="64" fill="var(--cor_1)" />
  <rect x="448" y="320" width="64" height="64" fill="var(--cor_2)" />
  <rect x="448" y="384" width="64" height="64" fill="var(--cor_1)" />
  <rect x="448" y="448" width="64" height="64" fill="var(--cor_2)" />

  <!-- Peão 1 -->
<symbol id="peao_1" viewBox="0 0 64 64">
    <!-- boneco -->
    <g transform="translate(32,32)">
    <!-- cabeça -->
    <circle cx="0" cy="-20" r="7"/>
    
    <!-- corpo -->
    <line x1="0" y1="-13" x2="0" y2="7" stroke-width = "2"/>
    
    <!-- braços -->
    <line x1="0" y1="-7" x2="-12" y2="0" stroke-width = "2"/>
    <line x1="0" y1="-7" x2="12" y2="3" stroke-width = "2"/>
    
    <!-- pernas -->
    <line x1="0" y1="7" x2="-5" y2="27" stroke-width = "2"/>
    <line x1="0" y1="7" x2="5" y2="27" stroke-width = "2"/>

    <!-- lança -->
    <g>
      <line x1="12" y1="27" x2="12" y2="-14" stroke-width = "2"/>
      <polygon points="9,-14 15,-14 12,-21"/>
    </g>
  </g>
  <g transform="translate(32,32)">
  <!-- escudo -->
    <path d="
      M -12 -9
      L-2 -6
      L -5 6
      L-12 10
      L-19 6
      L-22 -6
      Z
     "
    fill=""
    stroke="var(--cor_5)"
    stroke-width="1"/>
    </g>
  </symbol>

  <!-- Peão 2 -->
<symbol id="peao_2" viewBox="0 0 64 64">
    <!-- boneco -->
    <g transform="translate(32,32)">
    <!-- cabeça -->
    <circle cx="0" cy="-20" r="7"/>
    
    <!-- corpo -->
    <line x1="0" y1="-13" x2="0" y2="7" stroke-width = "2"/>
    
    <!-- braços -->
    <line x1="0" y1="-7" x2="-12" y2="0" stroke-width = "2"/>
    <line x1="0" y1="-7" x2="12" y2="3" stroke-width = "2"/>
    
    <!-- pernas -->
    <line x1="0" y1="7" x2="-5" y2="27" stroke-width = "2"/>
    <line x1="0" y1="7" x2="5" y2="27" stroke-width = "2"/>

    <!-- lança -->
    <g>
      <line x1="12" y1="27" x2="12" y2="-14" stroke-width = "2"/>
      <polygon points="9,-14 15,-14 12,-21"/>
    </g>
  </g>
  <g transform="translate(32,32)">
  <!-- escudo -->
    <path d="
      M -12 -9
      L-2 -6
      L -5 6
      L-12 10
      L-19 6
      L-22 -6
      Z
     "
    fill=""
    stroke="var(--cor_6)"
    stroke-width="1"/>
    </g>
  </symbol>

<!-- Torre-->

<symbol id="torre" viewBox="0 0 64 64">
  
  <g transform="translate(32,32)">
    <path d="
      M -20 27
      L 20 27
      L 16 18
      L 10 18
      L 10 -20
      L 14 -20
      L 14 -27
      L 10 -27
      L 10 -23
      L 6 -23
      L 6 -27
      L 2 -27
      L 2 -23
      L -2 -23
      L -2 -27
      L -6 -27
      L -6 -23
      L -10 -23
      L -10 -27 
      L -14 -27 
      L -14 -20
      L -10 -20
      L -10 18
      L -14 18
      L -16 18
     Z
     "
    fill=""
    stroke=""
    stroke-width="1"/>
    </g>
  </symbol>





  <use href="#peao_1" x="0" y="384" width="64" height="64" stroke="var(--cor_3)" fill = "var(--cor_3)"/>
  <use href="#peao_1" x="64" y="384" width="64" height="64" stroke="var(--cor_3)" fill = "var(--cor_3)" />
  <use href="#peao_1" x="128" y="384" width="64" height="64" stroke="var(--cor_3)" fill = "var(--cor_3)" />
  <use href="#peao_1" x="192" y="384" width="64" height="64" stroke="var(--cor_3)" fill = "var(--cor_3)"/>
  <use href="#peao_1" x="256" y="384" width="64" height="64" stroke="var(--cor_3)" fill = "var(--cor_3)" />
  <use href="#peao_1" x="320" y="384" width="64" height="64" stroke="var(--cor_3)" fill = "var(--cor_3)" />
  <use href="#peao_1" x="384" y="384" width="64" height="64" stroke="var(--cor_3)" fill = "var(--cor_3)"/>
  <use href="#peao_1" x="448" y="384" width="64" height="64" stroke="var(--cor_3)" fill = "var(--cor_3)" />
  <use href="#peao_2" x="0" y="64" width="64" height="64" stroke="var(--cor_4)" fill = "var(--cor_4)"/>
  <use href="#peao_2" x="64" y="64" width="64" height="64" stroke="var(--cor_4)" fill = "var(--cor_4)" />
  <use href="#peao_2" x="128" y="64" width="64" height="64" stroke="var(--cor_4)" fill = "var(--cor_4)" />
  <use href="#peao_2" x="192" y="64" width="64" height="64" stroke="var(--cor_4)" fill = "var(--cor_4)"/>
  <use href="#peao_2" x="256" y="64" width="64" height="64" stroke="var(--cor_4)" fill = "var(--cor_4)" />
  <use href="#peao_2" x="320" y="64" width="64" height="64" stroke="var(--cor_4)" fill = "var(--cor_4)" />
  <use href="#peao_2" x="384" y="64" width="64" height="64" stroke="var(--cor_4)" fill = "var(--cor_4)"/>
  <use href="#peao_2" x="448" y="64" width="64" height="64" stroke="var(--cor_4)" fill = "var(--cor_4)" />
    
  <use href="#torre" x="0" y="0" width="64" height="64" stroke="var(--cor_4)" fill = "var(--cor_4)"/>
  <use href="#torre" x="448" y="0" width="64" height="64" stroke="var(--cor_4)" fill = "var(--cor_4)" />
  <use href="#torre" x="0" y="448" width="64" height="64" stroke="var(--cor_3)" fill = "var(--cor_3)"/>
  <use href="#torre" x="448" y="448" width="64" height="64" stroke="var(--cor_3)" fill = "var(--cor_3)" />

</svg>